<svg width="58" height="57" viewBox="0 0 58 57" fill="none" xmlns="http://www.w3.org/2000/svg">
<ellipse cx="29" cy="28.5" rx="29" ry="28.5" fill="#EDFFEF"/>
<path d="M42 18.0119C42 18.0119 39.6152 19.4207 38.2891 19.8201C37.5773 19.0017 36.6314 18.4216 35.5792 18.1583C34.527 17.8951 33.4194 17.9613 32.4061 18.3481C31.3928 18.7348 30.5227 19.4235 29.9135 20.3208C29.3043 21.2182 28.9855 22.281 29 23.3655V24.5473C26.9231 24.6012 24.8651 24.1406 23.0094 23.2065C21.1536 22.2724 19.5577 20.8939 18.3636 19.1937C18.3636 19.1937 13.6364 29.8301 24.2727 34.5574C21.8388 36.2095 18.9394 37.0379 16 36.921C26.6364 42.8301 39.6364 36.921 39.6364 23.3301C39.6353 23.0009 39.6036 22.6725 39.5418 22.3492C40.748 21.1596 42 18.0119 42 18.0119Z" stroke="#484848" stroke-width="2.5" stroke-linecap="round" stroke-linejoin="round"/>
</svg>
