<svg width="58" height="57" viewBox="0 0 58 57" fill="none" xmlns="http://www.w3.org/2000/svg">
<ellipse cx="29" cy="28.5" rx="29" ry="28.5" fill="#EDFFEF"/>
<path d="M32.2 28.5855L27.475 31.2855V25.8855L32.2 28.5855Z" fill="#484848" stroke="#484848" stroke-width="2.5" stroke-linecap="round" stroke-linejoin="round"/>
<path d="M16 29.5403V27.6299C16 23.7212 16 21.7668 17.2224 20.5093C18.4448 19.2518 20.3694 19.1974 24.2184 19.0885C26.0423 19.037 27.9054 19 29.5 19C31.0946 19 32.9578 19.037 34.7816 19.0885C38.6306 19.1974 40.5551 19.2518 41.7776 20.5093C43 21.7668 43 23.7212 43 27.6299V29.5403C43 33.4489 43 35.4033 41.7776 36.6607C40.5551 37.9182 38.6307 37.9726 34.7817 38.0816C32.9578 38.1331 31.0946 38.1701 29.5 38.1701C27.9054 38.1701 26.0422 38.1331 24.2183 38.0816C20.3693 37.9726 18.4448 37.9182 17.2224 36.6607C16 35.4033 16 33.4489 16 29.5403Z" stroke="#484848" stroke-width="2.5"/>
</svg>
