<svg width="57" height="57" viewBox="0 0 57 57" fill="none" xmlns="http://www.w3.org/2000/svg">
<circle cx="28.5" cy="28.5" r="28.5" fill="#EDFFEF"/>
<path d="M28 33.8891C30.7 33.8891 32.8889 31.7002 32.8889 29.0002C32.8889 26.3002 30.7 24.1113 28 24.1113C25.3 24.1113 23.1111 26.3002 23.1111 29.0002C23.1111 31.7002 25.3 33.8891 28 33.8891Z" stroke="#484848" stroke-width="2.5" stroke-linecap="round" stroke-linejoin="round"/>
<path d="M17 33.8889V24.1111C17 20.736 19.736 18 23.1111 18H32.8889C36.2639 18 39 20.736 39 24.1111V33.8889C39 37.2639 36.2639 40 32.8889 40H23.1111C19.736 40 17 37.2639 17 33.8889Z" stroke="#484848" stroke-width="2.5"/>
<path d="M34.7222 22.2907L34.7351 22.2764" stroke="#484848" stroke-width="2.5" stroke-linecap="round" stroke-linejoin="round"/>
</svg>
